# xmcd CD database file
#
# Track frame offsets:
#	150
#	30968
#	57760
#	82263
#	97998
#	119296
#	141893
#	160253
#	185311
#	212328
#	229731
#	257166
#	280226
#	304086
#	323943
#
# Disc length: 4740 seconds
#
# Revision: 0
# Processed by: cddbd v1.5.2PL0 Copyright (c) Steve Scherf et al.
# Submitted via: CDex 1.70beta2
#
DISCID=c812820f
DTITLE=Abdullah Ibrahim - Dollar Brand plays Sphere Jazz
DYEAR=1960
DGENRE=Jazz
TTITLE0=Boulevard East
TTITLE1=Khumbula Jane
TTITLE2=Sad Times, Bad Ttimes - King Kong
TTITLE3=Blues for B
TTITLE4=Misterioso
TTITLE5=Just you, Just Me
TTITLE6=Eclipse at Dawn
TTITLE7=Dollar's Mood
TTITLE8=Blues for Hughie
TTITLE9=Uku-Jonga Phambili (meaning "Looking Forward")
TTITLE10=I Remember Billy
TTITLE11=Vary-Oo-Vum
TTITLE12=Carol's Drive
TTITLE13=Gafsa
TTITLE14=Scullery Department
EXTD=YEAR: 1960
EXTT0=
EXTT1=
EXTT2=
EXTT3=
EXTT4=
EXTT5=
EXTT6=
EXTT7=
EXTT8=
EXTT9=
EXTT10=
EXTT11=
EXTT12=
EXTT13=
EXTT14=
PLAYORDER=
